<svg width="56" height="56" viewBox="0 0 56 56" fill="none" xmlns="http://www.w3.org/2000/svg">
<path d="M28 51.3333C24.7722 51.3333 21.7389 50.7204 18.9 49.4946C16.0611 48.2688 13.5916 46.6067 11.4916 44.5083C9.39163 42.4098 7.72952 39.9404 6.5053 37.1C5.28107 34.2595 4.66818 31.2262 4.66663 28C4.66507 24.7737 5.27796 21.7404 6.5053 18.9C7.73263 16.0595 9.39474 13.5901 11.4916 11.4916C13.5885 9.39318 16.058 7.73107 18.9 6.50529C21.742 5.27952 24.7753 4.66663 28 4.66663C31.2246 4.66663 34.258 5.27952 37.1 6.50529C39.942 7.73107 42.4114 9.39318 44.5083 11.4916C46.6052 13.5901 48.2681 16.0595 49.497 18.9C50.7258 21.7404 51.338 24.7737 51.3333 28C51.3286 31.2262 50.7157 34.2595 49.4946 37.1C48.2735 39.9404 46.6114 42.4098 44.5083 44.5083C42.4052 46.6067 39.9357 48.2696 37.1 49.497C34.2642 50.7243 31.2309 51.3364 28 51.3333ZM28 46.6666C33.2111 46.6666 37.625 44.8583 41.2416 41.2416C44.8583 37.625 46.6666 33.2111 46.6666 28C46.6666 22.7888 44.8583 18.375 41.2416 14.7583C37.625 11.1416 33.2111 9.33329 28 9.33329C22.7888 9.33329 18.375 11.1416 14.7583 14.7583C11.1416 18.375 9.3333 22.7888 9.3333 28C9.3333 33.2111 11.1416 37.625 14.7583 41.2416C18.375 44.8583 22.7888 46.6666 28 46.6666ZM28 42C24.1111 42 20.8055 40.6388 18.0833 37.9166C15.3611 35.1944 14 31.8888 14 28C14 24.1111 15.3611 20.8055 18.0833 18.0833C20.8055 15.3611 24.1111 14 28 14C31.8888 14 35.1944 15.3611 37.9166 18.0833C40.6388 20.8055 42 24.1111 42 28C42 31.8888 40.6388 35.1944 37.9166 37.9166C35.1944 40.6388 31.8888 42 28 42ZM28 37.3333C30.5666 37.3333 32.7638 36.4194 34.5916 34.5916C36.4194 32.7638 37.3333 30.5666 37.3333 28C37.3333 25.4333 36.4194 23.2361 34.5916 21.4083C32.7638 19.5805 30.5666 18.6666 28 18.6666C25.4333 18.6666 23.2361 19.5805 21.4083 21.4083C19.5805 23.2361 18.6666 25.4333 18.6666 28C18.6666 30.5666 19.5805 32.7638 21.4083 34.5916C23.2361 36.4194 25.4333 37.3333 28 37.3333ZM28 32.6666C26.7166 32.6666 25.6184 32.2101 24.7053 31.297C23.7922 30.3838 23.3349 29.2848 23.3333 28C23.3317 26.7151 23.7891 25.6168 24.7053 24.7053C25.6215 23.7937 26.7197 23.3364 28 23.3333C29.2802 23.3302 30.3792 23.7875 31.297 24.7053C32.2147 25.6231 32.6713 26.7213 32.6666 28C32.662 29.2786 32.2054 30.3776 31.297 31.297C30.3885 32.2163 29.2895 32.6728 28 32.6666Z" fill="#09372B"/>
</svg>
