<svg width="36" height="36" viewBox="0 0 36 36" fill="none" xmlns="http://www.w3.org/2000/svg">
<path d="M12.642 2.505C5.667 2.505 1.866 8.72851 1.866 13.002C1.866 16.443 5.166 17.9505 8.241 17.9505L8.232 17.9415C14.598 17.9415 19.008 12.1605 19.008 7.4445C19.008 4.0095 15.7455 2.505 12.642 2.505ZM29.634 2.505C22.659 2.505 18.858 8.72851 18.858 13.002C18.858 16.443 22.158 17.9505 25.233 17.9505L25.224 17.9415C31.5915 17.94 36 12.1605 36 7.4445C36 4.0095 32.73 2.505 29.634 2.505ZM21.258 21.78L24.9105 24.531C21.6555 27.636 15.7245 29.8185 10.881 29.286C8.63624 29.0321 6.49248 28.2134 4.64997 26.9062C2.80746 25.5991 1.32635 23.8463 0.345 21.8115H0C0.606047 24.9442 2.23539 27.7869 4.63217 29.8931C7.02895 31.9994 10.0574 33.25 13.242 33.4485C18.963 33.8085 24.2265 32.091 28.1625 28.7535L28.1565 28.764L29.7765 33.246L32.109 21.8115L21.258 21.78Z" fill="white"/>
</svg>
